<svg width="16" height="16" viewBox="0 0 16 16" fill="none" xmlns="http://www.w3.org/2000/svg">
<g clip-path="url(#clip0_6720_69069)">
<rect x="1.53711" y="3.42175" width="8.87985" height="6.29781" rx="3" fill="#808080"/>
<path d="M2.46929 10.6655C3.0012 10.2513 3.47797 9.42776 3.52809 8.80095C3.53163 8.75674 3.56148 8.71844 3.60433 8.70699L5.73666 8.13702C5.78965 8.12286 5.84194 8.15492 5.83897 8.20969C5.82678 8.43428 5.67584 8.94947 5.12633 9.81953C4.53796 10.7511 3.3996 10.9556 2.51389 10.8673C2.41857 10.8578 2.39371 10.7243 2.46929 10.6655Z" fill="#808080"/>
<path d="M13.7705 13.1832C13.2848 12.8269 12.8365 12.1216 12.764 11.5681C12.7583 11.5241 12.7268 11.4872 12.6835 11.4777L10.7533 11.0535C10.6997 11.0417 10.6493 11.0761 10.6556 11.1306C10.6795 11.3373 10.8398 11.7935 11.3626 12.5445C11.9243 13.3513 12.9417 13.496 13.7332 13.3879C13.8281 13.375 13.8477 13.2399 13.7705 13.1832Z" fill="#808080"/>
<path d="M11.771 7.49719C13.1516 7.49719 14.271 8.61657 14.271 9.99719C14.2708 11.3777 13.1515 12.4972 11.771 12.4972H9.73877C8.44767 12.4972 7.38578 11.5179 7.25342 10.2618H7.97119C9.54862 10.2618 10.8412 9.04378 10.9614 7.49719H11.771Z" fill="#808080"/>
</g>
<defs>
<clipPath id="clip0_6720_69069">
<rect width="16" height="16" fill="white"/>
</clipPath>
</defs>
</svg>
