<svg width="16" height="16" viewBox="0 0 16 16" fill="none" xmlns="http://www.w3.org/2000/svg">
<g clip-path="url(#clip0_7104_15887)">
<path d="M13.3333 2.00033H12.6667V0.666992H11.3333V2.00033H4.66666V0.666992H3.33333V2.00033H2.66666C1.93333 2.00033 1.33333 2.60033 1.33333 3.33366V14.0003C1.33333 14.7337 1.93333 15.3337 2.66666 15.3337H13.3333C14.0667 15.3337 14.6667 14.7337 14.6667 14.0003V3.33366C14.6667 2.60033 14.0667 2.00033 13.3333 2.00033ZM13.3333 14.0003H2.66666V5.33366H13.3333V14.0003Z" fill="#808080"/>
<path d="M10.1329 9.95654C10.2157 9.95654 10.2833 10.0238 10.2788 10.1065C10.252 10.5939 10.0949 11.0663 9.82263 11.4738C9.52255 11.9229 9.09603 12.2729 8.59702 12.4796C8.098 12.6863 7.5489 12.7404 7.01914 12.635C6.48939 12.5297 6.00278 12.2696 5.62085 11.8876C5.23892 11.5057 4.97882 11.0191 4.87344 10.4893C4.76807 9.95957 4.82215 9.41047 5.02885 8.91145C5.23555 8.41243 5.58558 7.98592 6.03469 7.68584C6.44214 7.41359 6.91453 7.2565 7.402 7.2297C7.48472 7.22516 7.55193 7.29274 7.55193 7.37559L7.55193 9.80654C7.55193 9.88939 7.61908 9.95654 7.70193 9.95654H10.1329Z" fill="#808080"/>
<path d="M8.34749 6.54554C8.34749 6.4627 8.4147 6.39512 8.49742 6.39951C8.81802 6.41651 9.13378 6.48794 9.43107 6.61108C9.7746 6.75337 10.0867 6.96194 10.3497 7.22487C10.6126 7.48781 10.8212 7.79995 10.9635 8.14349C11.0866 8.44077 11.158 8.75653 11.175 9.07713C11.1794 9.15986 11.1119 9.22707 11.029 9.22707L8.49749 9.22707C8.41465 9.22707 8.34749 9.15991 8.34749 9.07707L8.34749 6.54554Z" fill="#808080"/>
</g>
<defs>
<clipPath id="clip0_7104_15887">
<rect width="16" height="16" fill="white"/>
</clipPath>
</defs>
</svg>
