<svg width="16" height="16" viewBox="0 0 16 16" fill="none" xmlns="http://www.w3.org/2000/svg">
<g clip-path="url(#clip0_6720_69186)">
<path d="M7.9061 1.84167C7.9061 1.73121 7.8165 1.64134 7.7061 1.64481C6.36892 1.68687 5.07711 2.14986 4.01617 2.97042C2.90242 3.83183 2.10609 5.03855 1.75209 6.40132C1.39809 7.76409 1.50645 9.20582 2.06016 10.5004C2.61387 11.7949 3.58162 12.8691 4.81161 13.5543C6.04161 14.2396 7.46427 14.4972 8.85645 14.2867C10.2486 14.0763 11.5316 13.4097 12.5041 12.3915C13.4766 11.3733 14.0836 10.0611 14.2299 8.66072C14.3693 7.32675 14.0832 5.98464 13.4152 4.82548C13.3601 4.72977 13.2365 4.70088 13.1426 4.75901L12.6717 5.05043C12.5778 5.10856 12.5491 5.23166 12.6037 5.32767C13.1608 6.30699 13.3988 7.43769 13.2813 8.5616C13.157 9.75191 12.641 10.8673 11.8144 11.7327C10.9878 12.5982 9.89725 13.1648 8.7139 13.3437C7.53054 13.5226 6.32128 13.3036 5.27579 12.7212C4.23029 12.1387 3.40771 11.2257 2.93705 10.1253C2.46639 9.02493 2.37429 7.79946 2.67519 6.64111C2.97609 5.48275 3.65297 4.45704 4.59966 3.72485C5.49353 3.0335 6.5802 2.64077 7.70612 2.5991C7.8165 2.59502 7.9061 2.50586 7.9061 2.3954L7.9061 1.84167Z" fill="#808080"/>
<path d="M12.0375 3.63302C12.0356 3.55607 12.1177 3.50588 12.1853 3.54269L13.8311 4.43868C13.8987 4.47549 13.9011 4.57168 13.8354 4.61183L12.2366 5.58912C12.1709 5.62927 12.0864 5.58326 12.0845 5.5063L12.0375 3.63302Z" fill="#808080"/>
<path d="M7.90625 4.12402C10.0469 4.12402 11.7822 5.85932 11.7822 8C11.7822 10.1407 10.0469 11.876 7.90625 11.876C5.76562 11.8759 4.0303 10.1406 4.03027 8C4.03027 5.85934 5.7656 4.12406 7.90625 4.12402ZM7.80957 5.77441C7.69911 5.77441 7.60938 5.86415 7.60938 5.97461V7.52246L5.72461 8.94043C5.63638 9.00675 5.61837 9.13144 5.68457 9.21973L5.97461 9.60547C6.04099 9.69372 6.1666 9.71186 6.25488 9.64551L8.35449 8.06641C8.43393 8.03993 8.49219 7.96627 8.49219 7.87793V5.97461C8.49219 5.86425 8.40231 5.77458 8.29199 5.77441H7.80957Z" fill="#808080"/>
</g>
<defs>
<clipPath id="clip0_6720_69186">
<rect width="16" height="16" fill="white"/>
</clipPath>
</defs>
</svg>
